<?xml version="1.0" encoding="UTF-8" standalone="no"?>
<!-- Created with Inkscape (http://www.inkscape.org/) -->

<svg
   xmlns:dc="http://purl.org/dc/elements/1.1/"
   xmlns:cc="http://creativecommons.org/ns#"
   xmlns:rdf="http://www.w3.org/1999/02/22-rdf-syntax-ns#"
   xmlns:svg="http://www.w3.org/2000/svg"
   xmlns="http://www.w3.org/2000/svg"
   xmlns:sodipodi="http://sodipodi.sourceforge.net/DTD/sodipodi-0.dtd"
   xmlns:inkscape="http://www.inkscape.org/namespaces/inkscape"
   width="240px"
   height="160px"
   viewBox="0 0 240 160"
   version="1.1"
   id="SVGRoot"
   inkscape:version="0.92.4 (5da689c313, 2019-01-14)"
   sodipodi:docname="fury-of-the-killers.svg">
  <defs
     id="defs1490">
    <clipPath
       clipPathUnits="userSpaceOnUse"
       id="clipPath5195">
      <g
         id="g5207"
         transform="translate(516.92228,79.920396)"
         style="fill:#bababa;fill-opacity:1">
        <g
           aria-label="FURY"
           transform="matrix(0.38366476,0,0,0.38366476,4710.6745,2442.2595)"
           style="font-style:normal;font-variant:normal;font-weight:normal;font-stretch:normal;font-size:40px;line-height:1.25;font-family:Bebas;-inkscape-font-specification:Bebas;letter-spacing:0px;word-spacing:0px;fill:#bababa;fill-opacity:1;stroke:none"
           id="g5205">
          <path
             d="m -11579.555,-5775.3879 44.521,0.3448 v -35.4754 l -44.521,-0.3448 v -35.6428 l 70.515,2.9546 -0.345,-38.5972 -124.905,-22.2542 v 200.8298 l 54.735,-11.4063 z"
             style="font-style:normal;font-variant:normal;font-weight:normal;font-stretch:normal;font-size:266.66665649px;font-family:Kroftsmann;-inkscape-font-specification:Kroftsmann;fill:#bababa;fill-opacity:1;stroke-width:1.11470842"
             id="path5197"
             inkscape:connector-curvature="0"
             sodipodi:nodetypes="ccccccccccc" />
          <path
             d="m -11491.937,-5736.7781 11.374,11.0938 109.109,-5.071 7.924,-13.0935 0.111,-132.2923 c -15.871,0 -31.738,0 -47.61,-0.01 v 114.3895 c -11.344,5e-4 -22.69,0 -34.035,0 v -114.391 l -47.118,-5.9961 z"
             style="font-style:normal;font-variant:normal;font-weight:normal;font-stretch:normal;font-size:266.66665649px;font-family:Kroftsmann;-inkscape-font-specification:Kroftsmann;fill:#bababa;fill-opacity:1;stroke-width:0.96584767"
             id="path5199"
             inkscape:connector-curvature="0"
             sodipodi:nodetypes="ccccccccccc" />
          <path
             d="m -11338.47,-5876.1425 v 145.3888 h 47.547 v -46.4355 c 2.94,5e-4 5.878,0 8.818,0 l 28.983,51.2612 54.016,6.0827 -35.035,-66.6514 26.436,-18.3385 -0.2,-77.3135 -130.555,6.0082 z m 78.074,65.196 c -10.184,-5e-4 -20.37,0 -30.557,0 v -34.1906 c 10.183,0 20.366,-0.01 30.55,-0.01 v 34.2003 z"
             style="font-style:normal;font-variant:normal;font-weight:normal;font-stretch:normal;font-size:266.66665649px;font-family:Kroftsmann;-inkscape-font-specification:Kroftsmann;fill:#bababa;fill-opacity:1;stroke-width:0.97148007"
             id="path5201"
             inkscape:connector-curvature="0"
             sodipodi:nodetypes="cccccccccccccccccc" />
          <path
             d="m -11107.579,-5711.9992 h -50.438 v -79.7097 l -42.562,-90.4398 50.791,-9.159 17.096,46.1183 14.9,-51.0456 47.697,-8.1679 -37.484,112.694 z"
             style="font-style:normal;font-variant:normal;font-weight:normal;font-stretch:normal;font-size:266.66665649px;font-family:Kroftsmann;-inkscape-font-specification:Kroftsmann;fill:#bababa;fill-opacity:1;stroke-width:1.0709095"
             id="path5203"
             inkscape:connector-curvature="0"
             sodipodi:nodetypes="cccccccccc" />
        </g>
      </g>
    </clipPath>
  </defs>
  <sodipodi:namedview
     id="base"
     pagecolor="#ffffff"
     bordercolor="#666666"
     borderopacity="1.0"
     inkscape:pageopacity="0.0"
     inkscape:pageshadow="2"
     inkscape:zoom="0.7"
     inkscape:cx="-101.1745"
     inkscape:cy="-90.011442"
     inkscape:document-units="px"
     inkscape:current-layer="layer1"
     showgrid="false"
     inkscape:window-width="1366"
     inkscape:window-height="705"
     inkscape:window-x="-8"
     inkscape:window-y="-8"
     inkscape:window-maximized="1" />
  <metadata
     id="metadata1493">
    <rdf:RDF>
      <cc:Work
         rdf:about="">
        <dc:format>image/svg+xml</dc:format>
        <dc:type
           rdf:resource="http://purl.org/dc/dcmitype/StillImage" />
        <dc:title></dc:title>
      </cc:Work>
    </rdf:RDF>
  </metadata>
  <g
     inkscape:label="Camada 1"
     inkscape:groupmode="layer"
     id="layer1">
    <g
       id="g5434"
       transform="matrix(0.71701271,0,0,0.71701271,41.391509,-7.2324859)"
       style="stroke-width:5.27121449">
      <g
         transform="translate(-3.1131662,133.00835)"
         id="g5000"
         style="stroke-width:5.27121449">
        <path
           inkscape:connector-curvature="0"
           id="path4979"
           d="m 83.77268,-95.67791 c 0,-0.34513 0.13409,-1.62386 0.29797,-2.84162 l 0.29797,-2.2141 -1.95161,-1.7754 c -1.91518,-1.74225 -1.93927,-1.78006 -1.29016,-2.02482 0.3638,-0.13718 1.59867,-0.59326 2.74415,-1.0135 l 2.08269,-0.76409 1.35106,-2.71198 c 0.74309,-1.49159 1.41322,-2.70639 1.48919,-2.69955 0.076,0.007 0.73391,0.9891 1.46211,2.18281 l 1.32399,2.17039 2.71452,0.13229 2.71451,0.13229 -1.88268,2.33777 -1.88268,2.33777 0.3229,2.63594 c 0.17759,1.44976 0.26303,2.6958 0.18987,2.76896 -0.0732,0.0732 -1.22607,-0.18142 -2.562,-0.56576 l -2.42896,-0.69879 -1.02003,0.67502 c -3.90419,2.58367 -3.97281,2.61711 -3.97281,1.93637 z m 22.48959,-3.68254 c 0,-0.31815 0.18867,-2.0416 0.41927,-3.82988 l 0.41927,-3.25143 -1.41146,-1.27735 c -0.7763,-0.70254 -1.91649,-1.72798 -2.53375,-2.27875 -0.61726,-0.55077 -1.07509,-1.07774 -1.0174,-1.17103 0.0577,-0.0933 1.70915,-0.76208 3.66992,-1.48619 l 3.56504,-1.31657 1.837,-3.68467 1.83699,-3.68466 1.83513,3.01685 1.83513,3.01686 3.63597,0.0736 c 1.99978,0.0405 3.63597,0.13353 3.63597,0.20676 0,0.0732 -1.12846,1.53898 -2.5077,3.25721 l -2.50769,3.12406 0.47591,3.74678 c 0.26176,2.06073 0.46748,3.74488 0.45718,3.74254 -0.0103,-0.002 -1.562,-0.45967 -3.4482,-1.0163 l -3.42945,-1.01205 -3.38357,2.20133 c -2.98481,1.9419 -3.38356,2.13316 -3.38356,1.62288 z m 26.01681,-5.42963 c 0.0854,-0.54571 0.23791,-1.81318 0.33888,-2.81661 l 0.1836,-1.82442 -1.93819,-1.76238 -1.93818,-1.76238 2.76783,-0.98612 2.76784,-0.98613 1.40481,-2.8247 1.40482,-2.8247 0.64505,1.04763 c 0.35478,0.57619 0.96818,1.61304 1.36308,2.30412 l 0.71802,1.2565 2.85269,2.7e-4 2.85269,2.6e-4 -2.00433,2.49197 -2.00433,2.49198 0.37944,2.73354 c 0.20869,1.50346 0.35727,2.75884 0.33017,2.78975 -0.0271,0.0309 -1.16857,-0.29176 -2.53661,-0.71703 l -2.48733,-0.77322 -0.94015,0.56773 c -0.51709,0.31225 -1.61823,1.02187 -2.44699,1.57692 -0.82876,0.55507 -1.58812,1.0092 -1.68747,1.0092 -0.0993,0 -0.11074,-0.44648 -0.0253,-0.99218 z"
           style="fill:#fe0000;stroke-width:1.39467525"
           sodipodi:nodetypes="scccccccccccccccscccscccssccccccccsccccscsccccccccccccccccccccccccscc" />
        <path
           inkscape:connector-curvature="0"
           id="path4977"
           d="m 47.931393,-95.47457 c 0,-0.3638 0.0362,-0.66146 0.0804,-0.66146 0.0442,0 6.42493,-1.13109 14.1793,-2.51354 7.75438,-1.38245 14.26662,-2.51355 14.47165,-2.51355 0.22048,0 0.37278,0.26819 0.37278,0.65642 0,0.46521 -0.17342,0.694897 -0.59532,0.788497 -1.65724,0.367703 -27.55372,4.905093 -27.99504,4.905093 -0.37168,0 -0.51381,-0.18298 -0.51381,-0.66146 z M 148.47305,-113.2677 v -0.75148 l 13.82448,-2.46074 c 7.60347,-1.35341 14.16143,-2.52572 14.57326,-2.60512 0.69556,-0.13411 0.74257,-0.0902 0.66146,0.61743 l -0.0873,0.76181 -13.49375,2.40357 c -7.42156,1.32197 -13.94024,2.48962 -14.48594,2.59479 -0.95852,0.18472 -0.99219,0.16571 -0.99219,-0.56026 z"
           style="fill:#030303;stroke-width:1.39467525" />
      </g>
      <g
         transform="matrix(0.69917127,0,0,0.69917127,-314.14878,5.3633011)"
         id="g4853"
         style="stroke-width:5.27121449">
        <path
           style="fill:#000000;stroke-width:1.39467525"
           d="m 608.90322,321.00134 c 11.5707,-9.67623 25.428,-23.37202 35.3104,-34.89894 19.7685,-23.05813 32.7041,-44.99753 40.0702,-67.96104 5.4635,-17.03229 8.552,-34.32343 10.2619,-57.45145 0.7062,-9.55296 0.3277,-40.09971 -0.5358,-43.2358 -0.107,-0.38875 -1.4954,-1.69162 -3.5597,-3.34038 -1.8612,-1.48668 -3.337,-2.7502 -3.2793,-2.80783 0.058,-0.0576 4.9738,0.0155 10.9248,0.16247 14.6818,0.36265 15.8912,0.35645 15.8912,-0.0814 0,-0.25608 -5.1321,-1.44727 -18.4106,-4.27322 -10.1259,-2.15498 -18.6486,-4.03932 -18.9395,-4.18742 -0.7998,-0.40715 -5.4583,-4.203044 -5.3236,-4.337774 0.065,-0.0647 5.4861,0.0109 12.0477,0.16796 15.6607,0.3748 16.3384,0.37193 16.3384,-0.0691 0,-0.25567 -5.4966,-1.5268 -19.6972,-4.55504 -19.3173,-4.11938 -19.7198,-4.21792 -20.8629,-5.10853 -0.6411,-0.49946 -1.1304,-0.94328 -1.0875,-0.98626 0.043,-0.043 4.4208,0.0301 9.7284,0.16231 5.3076,0.13225 10.9698,0.24459 12.5826,0.24964 5.6997,0.0179 4.2804,-0.4137 -14.6175,-4.44448 l -17.55,-3.74329 -2.6928,-2.14524 -2.6928,-2.14524 1.6999,0.15149 c 0.935,0.0833 6.1747,0.22584 11.6438,0.3167 8.5673,0.14234 9.944,0.11232 9.944,-0.21683 0,-0.29123 -3.7783,-1.18565 -15.8971,-3.76325 -15.6008,-3.31823 -15.9203,-3.39879 -17.148,-4.3242 -0.688,-0.51864 -1.2238,-0.95927 -1.1906,-0.97918 0.033,-0.0199 3.6917,0.0519 8.1301,0.15953 4.4384,0.10764 9.6275,0.20593 11.5314,0.21841 6.2669,0.0411 5.0924,-0.34273 -12.5319,-4.0953 -15.5834,-3.318019 -16.0235,-3.428639 -17.1587,-4.313099 -0.6409,-0.49925 -1.1332,-0.93309 -1.0941,-0.96409 0.039,-0.031 3.8215,0.0381 8.4054,0.15362 12.5941,0.31728 15.3577,0.30342 15.2797,-0.0767 -0.039,-0.18808 -7.661,-2.39326 -18.2973,-5.29342 -17.0852,-4.65857 -18.3021,-5.02913 -19.3591,-5.89532 -0.6204,-0.50835 -1.27,-0.92428 -1.4436,-0.92428 -0.1736,0 -0.8714,0.4653 -1.5506,1.03399 -1.202,1.00631 -1.7022,1.16415 -18.6899,5.89641 -11.0305,3.07278 -17.4825,4.99073 -17.5301,5.21103 -0.062,0.28599 1.7682,0.31837 10.1865,0.18029 5.6439,-0.0926 10.7975,-0.23498 11.4523,-0.31644 l 1.1906,-0.14811 -1.736,1.28131 -1.736,1.28131 -14.8225,3.149259 c -11.1961,2.37879 -14.8225,3.2417 -14.8225,3.52706 0,0.32417 1.5054,0.35121 10.6054,0.1905 5.833,-0.10302 10.7244,-0.24475 10.87,-0.31495 0.4305,-0.2077 -1.2448,1.18652 -2.249,1.87169 -0.7401,0.50495 -3.8794,1.25867 -15.6325,3.75316 -11.0677,2.34905 -14.7064,3.21435 -14.7064,3.49728 0,0.32168 1.5311,0.34949 10.6054,0.19267 9.2659,-0.16013 10.5553,-0.13484 10.2085,0.20022 -0.341,0.32956 -4.1282,3.37162 -4.8948,3.93175 -0.1455,0.10634 -7.6564,1.77114 -16.6908,3.69956 -12.5346,2.67556 -16.4262,3.59685 -16.4262,3.88877 0,0.32972 1.3367,0.35973 9.6793,0.21725 5.3237,-0.0909 10.6914,-0.22642 11.9283,-0.30113 l 2.249,-0.13583 -0.7937,0.68969 c -2.0713,1.79976 -1.8897,1.74955 -21.0565,5.82092 -13.2531,2.8152 -18.4106,4.00994 -18.4106,4.26487 0,0.4368 1.2173,0.44296 15.8912,0.0805 5.951,-0.14699 10.8674,-0.21989 10.9253,-0.16199 0.058,0.0579 -1.2489,1.1864 -2.9041,2.507774 l -3.0094,2.4025 -17.5952,3.75805 c -18.9415,4.04559 -20.357,4.47595 -14.6628,4.4581 1.6129,-0.005 7.2751,-0.11739 12.5827,-0.24964 5.3076,-0.13224 9.6879,-0.20266 9.7341,-0.15646 0.046,0.0462 -1.4389,1.30035 -3.3002,2.78703 -2.0642,1.64876 -3.4526,2.95163 -3.5596,3.34038 -0.9564,3.47357 -1.2303,33.98138 -0.4036,44.95713 2.5962,34.46862 9.5257,60.67309 22.1494,83.7601 8.3281,15.23083 18.8885,29.81017 33.044,45.6196 4.778,5.3362 17.3873,17.89094 22.7763,22.67773 6.2084,5.51463 10.6511,9.18782 11.1125,9.18782 0.2183,0 1.8256,-1.19481 3.5719,-2.65515 z"
           id="path1077"
           inkscape:connector-curvature="0"
           sodipodi:nodetypes="csscccccsccccssccccsccccsscccccsccccscscccccccccsccccssccssccccssscccscccccsccsscc" />
        <g
           transform="matrix(-1,0,0,1,-1796.7559,241.61418)"
           id="g1075"
           style="fill:#800000;fill-opacity:1;stroke-width:5.27121449">
          <path
             inkscape:connector-curvature="0"
             id="path1061"
             d="m -2406.4484,72.078927 c -10.9199,-9.167654 -23.3071,-21.450696 -32.8821,-32.605614 -16.079,-18.731941 -28.2236,-38.1687269 -35.174,-56.293986 -5.7249,-14.929625 -9.6896,-32.308916 -11.7095,-51.329165 -1.6123,-15.182739 -1.946,-39.453712 -0.7089,-51.573962 l 0.1735,-1.7 41.9364,-33.70215 41.9365,-33.70216 0.067,66.04933 c 0.037,36.327136 0.037,95.705931 0,131.9528865 l -0.067,65.9035545 z"
             style="fill:#800000;fill-opacity:1;stroke-width:1.39467525" />
          <path
             inkscape:connector-curvature="0"
             id="path1063"
             d="m -2405.7869,72.569517 c -11.0964,-9.229195 -23.5221,-21.496628 -33.1921,-32.769359 -17.3532,-20.229416 -29.0471,-39.24741713 -36.5191,-59.391553 -5.875,-15.838725 -9.8656,-35.977316 -11.5622,-58.348026 -0.826,-10.89243 -0.5337,-41.586939 0.4126,-43.319869 0.098,-0.17879 18.9861,-15.4402 41.9744,-33.91424 l 41.7968,-33.58915 0.067,66.01661 c 0.037,36.309145 0.037,95.653544 0,131.8764435 l -0.067,65.8598165 z"
             style="fill:#800000;fill-opacity:1;stroke-width:1.39467525" />
          <path
             inkscape:connector-curvature="0"
             id="path1065"
             d="m -2406.8453,71.644904 c -27.628,-23.330931 -51.5847,-53.137864 -63.6021,-79.1337605 -10.1037,-21.8562895 -15.5072,-46.8296135 -16.9892,-78.5203565 -0.4774,-10.207675 0.017,-32.578977 0.7721,-34.962747 0.1029,-0.32482 18.0317,-14.91291 41.9838,-34.16098 l 41.8042,-33.59406 0.067,65.99878 c 0.037,36.299322 0.037,95.637086 0,131.8616891 l -0.067,65.8629119 z"
             style="fill:#800000;fill-opacity:1;stroke-width:1.39467525" />
          <path
             inkscape:connector-curvature="0"
             id="path1067"
             d="m -2406.0515,72.277894 c -9.1961,-7.734432 -23.2799,-21.498798 -30.7949,-30.096486 -13.9212,-15.926813 -23.9968,-30.51631 -31.611,-45.7729151 -11.5292,-23.1012329 -17.4805,-49.1541789 -18.9779,-83.0791639 -0.4312,-9.76753 -0.039,-28.708239 0.6984,-33.734379 0.1533,-1.04474 0.6925,-1.48982 42.0078,-34.67588 l 41.8526,-33.61754 0.067,65.98451 c 0.037,36.291484 0.037,95.611997 0,131.8233679 l -0.067,65.8388461 z"
             style="fill:#800000;fill-opacity:1;stroke-width:1.39467525" />
          <path
             inkscape:connector-curvature="0"
             id="path1069"
             d="m -2405.5224,72.710276 c -11.0858,-9.293701 -23.7054,-21.742717 -33.3085,-32.858363 -16.9144,-19.57861 -29.4063,-39.83344524 -36.4208,-59.053836 -6.5272,-17.885423 -10.3556,-37.865957 -11.9388,-62.309373 -0.6252,-9.652728 -0.3374,-32.686224 0.4844,-38.761454 l 0.1611,-1.19063 41.6672,-33.46979 c 22.917,-18.40838 41.7722,-33.50948 41.9004,-33.55798 0.1343,-0.0508 0.2332,55.73552 0.2332,131.564055 0,72.408738 -0.089,131.648072 -0.1985,131.642965 -0.1091,-0.005 -1.27,-0.907627 -2.5797,-2.005594 z"
             style="fill:#800000;fill-opacity:1;stroke-width:1.39467525" />
          <path
             inkscape:connector-curvature="0"
             id="path1071"
             d="m -2407.639,70.861817 c -27.8701,-23.893567 -50.9431,-52.774573 -62.8663,-78.6909515 -7.7695,-16.8878875 -12.7351,-35.8127025 -15.3066,-58.3363285 -1.4879,-13.032362 -2.0939,-28.117376 -1.6334,-40.660877 0.4238,-11.54503 0.6798,-14.21832 1.4301,-14.93382 0.8109,-0.77328 82.9968,-66.77509 83.1488,-66.77509 0.067,0 0.1222,59.23359 0.1222,131.630203 0,72.396612 -0.089,131.62859 -0.1985,131.626606 -0.1091,-0.0026 -2.2225,-1.738842 -4.6963,-3.859742 z"
             style="fill:#800000;fill-opacity:1;stroke-width:1.39467525" />
          <g
             id="g1130"
             style="stroke-width:5.27121449">
            <g
               style="fill:#ff0000;stroke-width:5.27121449"
               transform="matrix(-1,0,0,1,-4805.7529,0.30398073)"
               id="g1045">
              <path
                 inkscape:connector-curvature="0"
                 id="path1059"
                 d="m -2406.4484,72.078927 c -10.9199,-9.167654 -23.3071,-21.450696 -32.8821,-32.605614 -16.079,-18.731941 -28.2236,-38.1687269 -35.174,-56.293986 -5.7249,-14.929625 -9.6896,-32.308916 -11.7095,-51.329165 -1.6123,-15.182739 -1.946,-39.453712 -0.7089,-51.573962 l 0.1735,-1.7 41.9364,-33.70215 41.9365,-33.70216 0.067,66.04933 c 0.037,36.327136 0.037,95.705931 0,131.9528865 l -0.067,65.9035545 z"
                 style="fill:#ff0000;stroke-width:1.39467525" />
              <path
                 inkscape:connector-curvature="0"
                 id="path1057"
                 d="m -2405.7869,72.569517 c -11.0964,-9.229195 -23.5221,-21.496628 -33.1921,-32.769359 -17.3532,-20.229416 -29.0471,-39.24741713 -36.5191,-59.391553 -5.875,-15.838725 -9.8656,-35.977316 -11.5622,-58.348026 -0.826,-10.89243 -0.5337,-41.586939 0.4126,-43.319869 0.098,-0.17879 18.9861,-15.4402 41.9744,-33.91424 l 41.7968,-33.58915 0.067,66.01661 c 0.037,36.309145 0.037,95.653544 0,131.8764435 l -0.067,65.8598165 z"
                 style="fill:#ff0000;stroke-width:1.39467525" />
              <path
                 inkscape:connector-curvature="0"
                 id="path1055"
                 d="m -2406.8453,71.644904 c -27.628,-23.330931 -51.5847,-53.137864 -63.6021,-79.1337605 -10.1037,-21.8562895 -15.5072,-46.8296135 -16.9892,-78.5203565 -0.4774,-10.207675 0.017,-32.578977 0.7721,-34.962747 0.1029,-0.32482 18.0317,-14.91291 41.9838,-34.16098 l 41.8042,-33.59406 0.067,65.99878 c 0.037,36.299322 0.037,95.637086 0,131.8616891 l -0.067,65.8629119 z"
                 style="fill:#ff0000;stroke-width:1.39467525" />
              <path
                 inkscape:connector-curvature="0"
                 id="path1053"
                 d="m -2406.0515,72.277894 c -9.1961,-7.734432 -23.2799,-21.498798 -30.7949,-30.096486 -13.9212,-15.926813 -23.9968,-30.51631 -31.611,-45.7729151 -11.5292,-23.1012329 -17.4805,-49.1541789 -18.9779,-83.0791639 -0.4312,-9.76753 -0.039,-28.708239 0.6984,-33.734379 0.1533,-1.04474 0.6925,-1.48982 42.0078,-34.67588 l 41.8526,-33.61754 0.067,65.98451 c 0.037,36.291484 0.037,95.611997 0,131.8233679 l -0.067,65.8388461 z"
                 style="fill:#ff0000;stroke-width:1.39467525" />
              <path
                 inkscape:connector-curvature="0"
                 id="path1051"
                 d="m -2405.5224,72.710276 c -11.0858,-9.293701 -23.7054,-21.742717 -33.3085,-32.858363 -16.9144,-19.57861 -29.4063,-39.83344524 -36.4208,-59.053836 -6.5272,-17.885423 -10.3556,-37.865957 -11.9388,-62.309373 -0.6252,-9.652728 -0.3374,-32.686224 0.4844,-38.761454 l 0.1611,-1.19063 41.6672,-33.46979 c 22.917,-18.40838 41.7722,-33.50948 41.9004,-33.55798 0.1343,-0.0508 0.2332,55.73552 0.2332,131.564055 0,72.408738 -0.089,131.648072 -0.1985,131.642965 -0.1091,-0.005 -1.27,-0.907627 -2.5797,-2.005594 z"
                 style="fill:#ff0000;stroke-width:1.39467525" />
              <path
                 inkscape:connector-curvature="0"
                 id="path1049"
                 d="m -2407.639,70.861817 c -27.8701,-23.893567 -50.9431,-52.774573 -62.8663,-78.6909515 -7.7695,-16.8878875 -12.7351,-35.8127025 -15.3066,-58.3363285 -1.4879,-13.032362 -2.0939,-28.117376 -1.6334,-40.660877 0.4238,-11.54503 0.6798,-14.21832 1.4301,-14.93382 0.8109,-0.77328 82.9968,-66.77509 83.1488,-66.77509 0.067,0 0.1222,59.23359 0.1222,131.630203 0,72.396612 -0.089,131.62859 -0.1985,131.626606 -0.1091,-0.0026 -2.2225,-1.738842 -4.6963,-3.859742 z"
                 style="fill:#ff0000;stroke-width:1.39467525" />
              <path
                 inkscape:connector-curvature="0"
                 id="path1047"
                 d="m -2405.6547,72.459556 c -13.6842,-11.398778 -27.8554,-25.838387 -39.0632,-39.803148 -14.396,-17.93714 -24.6534,-35.5999532 -31.0534,-53.472591 -8.3074,-23.199132 -12.6012,-54.735506 -11.6321,-85.433657 0.2981,-9.44164 0.699,-14.82501 1.1363,-15.25577 0.1713,-0.16874 19.0042,-15.32419 41.851,-33.67876 l 41.5396,-33.37194 0.067,65.91343 c 0.037,36.252387 0.037,95.501637 0,131.6649992 l -0.067,65.7515628 z"
                 style="fill:#ff0000;stroke-width:1.39467525" />
            </g>
            <path
               style="fill:#800000;fill-opacity:1;stroke-width:1.39467525"
               d="m -2405.6547,72.459556 c -13.6842,-11.398778 -27.8554,-25.838387 -39.0632,-39.803148 -14.396,-17.93714 -24.6534,-35.5999532 -31.0534,-53.472591 -8.3074,-23.199132 -12.6012,-54.735506 -11.6321,-85.433657 0.2981,-9.44164 0.699,-14.82501 1.1363,-15.25577 0.1713,-0.16874 19.0042,-15.32419 41.851,-33.67876 l 41.5396,-33.37194 0.067,65.91343 c 0.037,36.252387 0.037,95.501637 0,131.6649992 l -0.067,65.7515628 z"
               id="path1073"
               inkscape:connector-curvature="0" />
          </g>
        </g>
      </g>
      <g
         transform="matrix(0.69917127,0,0,0.69917127,36.371623,31.831201)"
         id="g4909"
         style="stroke-width:5.27121449">
        <path
           style="fill:#ffffff;stroke-width:0.69076121"
           d="m 139.46424,143.11011 c 0.6489,-1.27144 1.96895,-1.90893 3.86844,-1.86819 1.72399,0.037 4.58076,-0.19514 6.16633,-0.501 9.92523,-2.75512 11.01648,-12.82346 5.87941,-19.55185 -1.40803,-0.83512 -3.59262,-1.70752 -5.36114,-2.14097 -0.793,-0.19435 -1.45657,-0.36354 -1.47465,-0.37598 -0.0179,-0.0124 0.17407,-0.84307 0.42697,-1.84585 1.36319,-5.405 2.44481,-12.4834 2.8277,-18.504964 0.20309,-3.194398 0.088,-11.218101 -0.19786,-13.779948 -0.9975,-8.942276 -3.35379,-16.084647 -7.22045,-21.886449 -1.57988,-2.370606 -2.53363,-3.530184 -4.5763,-5.563815 -6.34878,-6.320609 -14.95948,-9.996329 -26.41952,-11.27797 -2.51877,-0.281662 -10.98273,-0.400012 -13.989609,-0.195599 -14.681267,0.998098 -25.485572,5.695684 -32.751797,14.240126 -8.865023,10.424516 -12.003224,26.842125 -9.013293,47.153289 0.517479,3.51528 1.507201,8.26063 2.354406,11.28849 0.07128,0.25479 0.006,0.29822 -0.65871,0.4361 -0.969563,0.20119 -3.058988,0.91117 -4.169041,1.4166 -9.031948,4.80969 -6.032882,13.40622 -0.515981,18.96005 2.526897,0.9758 5.432304,2.11753 9.592777,2.27563 2.97983,0.11323 3.501764,0.2183 4.175335,0.84049 0.409584,0.37832 0.871926,1.11452 1.397702,2.2556 l 0.414262,0.68962 c 0.402545,0.56401 3.339624,5.64912 5.754219,8.65548 5.602137,6.97525 12.131529,11.89919 18.671821,14.08088 1.525636,0.50891 3.915019,1.07162 5.308089,1.25008 1.56927,0.20102 6.31182,0.17066 8.01668,-0.0513 v -10e-6 c 6.16295,-0.80243 11.87507,-3.3211 17.28777,-7.62278 1.90911,-1.51724 5.72022,-5.34679 7.33845,-7.37392 2.93491,-3.45645 4.7804,-7.10489 6.86798,-11.00182 z"
           id="path4892"
           inkscape:connector-curvature="0"
           sodipodi:nodetypes="cccccccccccccccccccsccccsccccccc" />
        <path
           inkscape:connector-curvature="0"
           id="path1009"
           d="M 59.940584,116.13872 C 57.436675,104.8211 56.777801,93.158534 58.087271,83.334685 c 0.863396,-6.477386 2.753784,-12.950568 5.126967,-17.555912 3.401724,-6.601457 7.894305,-11.495292 14.058697,-15.314549 5.687068,-3.523476 13.664075,-5.802213 22.636649,-6.466451 2.698766,-0.199804 9.914106,-0.08336 12.364586,0.199557 3.54643,0.409418 7.37559,1.207992 10.71836,2.235306 7.67578,2.358995 14.67557,7.25942 19.24441,13.472511 3.70964,5.044685 6.00083,10.266546 7.58541,17.287819 1.28433,5.69109 1.75164,10.028201 1.7522,16.262691 4.6e-4,7.423143 -0.88354,15.188873 -2.59724,22.811083 -0.16758,0.74529 -0.29204,1.36762 -2.73728,1.794 -4.08291,-1.20445 -4.71741,-2.87164 -4.71741,-4.27845 0,-0.36703 0.1625,-1.67445 0.36115,-2.90542 0.7795,-4.83019 1.10207,-8.78898 1.10172,-13.519794 -2.4e-4,-3.180246 -0.10368,-5.222549 -0.3798,-7.500698 -1.43357,-11.8286 -5.98353,-21.056345 -13.73926,-27.864459 -5.89161,-5.171774 -13.76395,-8.600086 -21.54936,-9.384511 -1.92056,-0.193494 -5.95268,-0.0912 -8.001822,0.203057 -7.677249,1.102297 -14.519601,4.083085 -19.801743,8.626362 -1.320689,1.135967 -3.833975,3.842363 -4.891772,5.267609 -6.014581,8.103705 -8.919378,19.18683 -8.631967,32.934433 0.09608,4.597161 0.313053,7.421671 0.948406,12.346421 l 0.263472,2.04216 -0.269062,0.88262 c -0.313279,1.02776 -1.338495,2.4405 -4.565156,3.01048 -2.227908,-0.5929 -2.260178,-1.02856 -2.426842,-1.78183 z"
           style="fill:#acacac;stroke-width:0.6625185"
           sodipodi:nodetypes="csccccccccccsccccsccccccccc" />
        <path
           inkscape:connector-curvature="0"
           id="path999"
           d="m 102.17621,171.03988 c -2.08151,-0.25073 -2.908512,-0.3934 -4.474227,-0.77186 -4.352591,-1.05206 -7.423402,-2.45325 -11.122522,-5.0751 -5.538099,-3.92528 -9.846681,-8.59767 -14.385025,-15.59977 -1.199094,-1.85005 -2.847014,-4.78306 -3.228138,-5.7455 l -0.255702,-0.64576 H 66.89321 c -3.923167,0 -8.620808,-0.98748 -11.226978,-2.35997 -1.199517,-0.63176 -2.93583,-1.9556 -3.771044,-2.87524 -1.472504,-1.62136 -2.246535,-3.07608 -2.824668,-5.30872 -0.362189,-1.39873 -0.394075,-1.68382 -0.396287,-3.54289 -0.0023,-1.78719 0.03702,-2.18053 0.337599,-3.39124 0.760027,-3.06144 2.406776,-5.44103 5.189694,-7.49921 1.221722,-0.90358 3.079729,-1.91379 4.243091,-2.30704 0.645446,-0.21814 0.840141,-0.33838 0.79546,-0.49125 -0.461685,-1.5795 -1.557508,-7.38346 -1.983704,-10.50668 -1.682697,-12.330879 -1.087316,-23.215965 1.812123,-33.130083 1.840013,-6.291621 5.374842,-12.550657 9.540054,-16.892356 3.288599,-3.427942 7.695728,-6.513669 12.083331,-8.460347 3.859238,-1.712262 9.624647,-3.265436 14.56703,-3.92429 12.952409,-1.726658 26.180879,0.0885 35.368889,4.853173 4.31964,2.240054 8.97388,6.014474 11.93543,9.679267 3.97118,4.914144 6.70755,10.736353 8.37699,17.82379 2.15533,9.150245 2.46576,18.22024 1.00399,29.333466 -0.43805,3.33031 -1.61477,9.66517 -2.1093,11.35539 -0.0446,0.15267 0.11879,0.25936 0.65599,0.4283 2.87322,0.90348 6.07367,3.20533 7.73598,5.56399 0.89727,1.27311 1.35266,2.32542 1.76753,4.08426 0.34597,1.46685 0.36988,1.71551 0.30945,3.22003 -0.17275,4.30053 -1.8401,7.78233 -4.87214,10.17406 -2.03573,1.60578 -3.57754,2.34485 -6.52967,3.13001 -2.26367,0.60208 -3.60965,0.79242 -6.1875,0.87494 l -2.40189,0.0769 -0.83845,1.83939 c -1.25608,2.7555 -3.52538,6.38371 -6.20844,9.9262 -1.4234,1.87937 -5.33758,6.02097 -6.97841,7.38391 -5.98719,4.9731 -11.38756,7.49128 -18.2942,8.53047 -1.26996,0.19109 -4.98116,0.35046 -5.81695,0.2498 z m 6.69539,-3.57118 c 8.88178,-1.66301 16.76931,-7.18933 23.37228,-16.37557 1.33004,-1.85039 3.44563,-5.24118 3.33956,-5.3525 -0.0295,-0.0311 -1.00062,0.14514 -2.15809,0.39128 -1.15746,0.24614 -3.13747,0.62987 -4.40001,0.8527 -1.26254,0.22278 -2.31422,0.4247 -2.33707,0.44871 -0.0229,0.0241 0.0216,0.65891 0.0987,1.411 0.16762,1.63377 0.0267,2.7691 -0.38838,3.12927 -0.32629,0.28307 -0.33515,0.28282 -0.81349,-0.0231 -0.46293,-0.29628 -1.23755,-1.82928 -1.60296,-3.17235 -0.17559,-0.64541 -0.29623,-0.88046 -0.45191,-0.88046 -0.23392,0 -4.1429,0.48681 -4.80379,0.59828 l -0.41453,0.0699 0.0875,0.66809 c 0.0482,0.36742 0.0875,1.17087 0.0875,1.78546 -8e-5,1.23215 -0.21637,1.98197 -0.64043,2.22013 -0.66608,0.37412 -1.39806,-0.67228 -2.18563,-3.1245 l -0.39797,-1.23909 -0.42237,0.0143 c -0.2323,0.008 -1.26128,0.06 -2.28663,0.11575 l -1.86427,0.10131 -0.0393,1.12334 c -0.10542,3.01722 -0.93637,4.82181 -1.88034,4.08363 -0.54815,-0.42865 -0.84324,-1.59104 -1.06604,-4.19933 l -0.0724,-0.84782 h -2.34971 -2.34972 l -0.0662,0.71738 c -0.2581,2.79572 -0.60414,4.10743 -1.16699,4.42354 -0.42493,0.23869 -0.87019,-0.0394 -1.15851,-0.7234 -0.2991,-0.70965 -0.590868,-2.30659 -0.597027,-3.26775 -0.0085,-1.32157 0.03934,-1.28988 -2.13798,-1.41701 -1.048078,-0.0612 -2.235011,-0.11418 -2.637637,-0.11768 l -0.732031,-0.007 -0.234703,1.2391 c -0.306904,1.62036 -0.851845,2.81297 -1.41383,3.09422 -0.473656,0.23702 -0.683082,0.13488 -0.986748,-0.48145 -0.218574,-0.44358 -0.437025,-2.1129 -0.437025,-3.33957 0,-0.83367 -0.03031,-0.96959 -0.217499,-0.97422 -0.119622,-0.005 -1.20165,-0.13779 -2.404505,-0.29963 l -2.187006,-0.29426 -0.150169,0.5892 c -0.20206,0.79286 -1.030674,2.6289 -1.441671,3.1944 -0.410369,0.56465 -0.728572,0.68262 -1.118273,0.41464 -0.540849,-0.3719 -0.701332,-1.74085 -0.424004,-3.61672 0.07444,-0.50354 0.108019,-0.9442 0.07462,-0.97925 -0.03341,-0.035 -1.338708,-0.29293 -2.900682,-0.57309 -1.561968,-0.28016 -3.814168,-0.71649 -5.004891,-0.96964 -1.190723,-0.25314 -2.211786,-0.46024 -2.269038,-0.46024 -0.252918,0 2.404161,4.10936 4.17472,6.45647 6.870083,9.10726 14.659852,14.46962 22.914159,15.77379 1.85733,0.29342 6.45393,0.19522 8.46236,-0.18082 z m -1.12241,-22.53635 c 0.16461,-1.58207 0.50235,-2.4782 1.03369,-2.74263 0.44512,-0.22155 0.90504,-0.0271 1.21922,0.51486 0.28164,0.48608 0.62455,1.94834 0.62734,2.67524 0.003,0.88489 0.0744,0.77768 0.27662,0.76269 1.03629,-0.0768 3.74235,-0.20395 3.77412,-0.23727 0.0318,-0.0335 -0.006,-0.60642 -0.0827,-1.27346 -0.29476,-2.54411 0.26924,-3.99721 1.36635,-3.52026 0.67082,0.2916 1.44659,1.91581 1.85505,3.88388 l 0.11505,0.5543 c 1.29986,-0.14824 4.09555,-0.4387 5.09246,-0.52379 0,-0.16061 2.7e-4,-0.18166 -0.0302,-0.48706 -0.3848,-2.15145 -0.28431,-3.81589 0.26045,-4.31384 0.85425,-0.78088 1.84421,0.41094 2.58106,3.10733 l 0.30297,1.10866 0.47728,-0.0419 c 0.79961,-0.0698 5.80413,-1.04555 8.27783,-1.61381 l 2.33204,-0.53567 0.47352,-0.73049 c 0.37999,-0.58615 0.63965,-0.81982 1.31443,-1.183 l 0.8409,-0.45255 2.25705,-0.035 c 2.54846,-0.0399 3.78629,-0.17456 5.68693,-0.61943 4.61504,-1.08016 7.90554,-3.78725 8.99829,-7.40289 1.37803,-4.55954 0.11248,-8.36947 -3.64591,-10.97614 -1.67782,-1.16367 -4.28947,-2.27637 -6.32765,-2.69594 -0.42723,-0.0879 -0.77678,-0.17255 -0.77678,-0.18807 0,-0.0158 0.0803,-0.19867 0.17851,-0.40696 0.3854,-0.81769 1.57314,-6.20303 2.17727,-9.87201 1.05163,-6.38662 1.30128,-9.45787 1.30644,-16.071698 0.004,-5.652674 -0.0694,-6.908732 -0.63124,-10.747052 -2.12096,-14.489338 -8.60895,-24.653887 -19.44627,-30.466068 -4.92919,-2.643575 -10.08998,-4.161102 -16.8929,-4.967356 -2.41693,-0.286444 -10.16281,-0.4047 -13.003758,-0.198533 -11.619761,0.843248 -20.385708,4.082882 -27.007758,9.98127 -10.796634,9.616753 -15.219554,26.276723 -12.675549,47.745487 0.567826,4.79183 1.708067,10.76479 2.790649,14.61835 0.06759,0.24057 -0.0042,0.28938 -0.647409,0.43949 -3.76986,0.87996 -7.396954,3.1232 -8.997607,5.56477 -1.812711,2.76506 -2.107903,6.63823 -0.744119,9.76366 1.38342,3.17048 4.770897,5.37863 9.62534,6.27437 1.277165,0.23564 4.712538,0.49657 5.275516,0.40074 0.703515,-0.11984 2.258538,0.16357 2.899242,0.52837 0.318479,0.18137 0.748001,0.57664 0.954498,0.87839 0.359188,0.52492 0.426987,0.56111 1.565599,0.83559 2.600006,0.62678 10.753103,2.23935 11.322171,2.23935 0.07179,0 0.200524,-0.27883 0.286084,-0.61957 0.08555,-0.34074 0.402771,-1.15554 0.704935,-1.81061 0.762971,-1.65408 1.546611,-2.295 2.230767,-1.82455 0.596626,0.4103 0.699588,1.52945 0.318871,3.46602 -0.133325,0.67814 -0.227414,1.24871 -0.209088,1.26794 0.08469,0.0889 4.221685,0.56741 4.289553,0.49618 0.0423,-0.0444 0.140366,-0.47577 0.217886,-0.95855 0.312201,-1.94464 0.784907,-3.0462 1.45155,-3.38265 0.417321,-0.21066 0.865465,-0.0187 1.258095,0.53911 0.235943,0.33517 0.259725,0.54573 0.259511,2.29821 l -2.48e-4,1.92927 1.118791,0.0802 c 0.61533,0.0444 1.742946,0.11895 2.505793,0.16633 l 1.38701,0.0861 0.07716,-0.7689 c 0.206845,-2.06138 0.519665,-3.00045 1.094865,-3.28683 0.87221,-0.43426 1.50172,0.56659 1.72872,2.74841 l 0.14566,1.39995 h 2.32023 2.32021 z m 0.24133,-11.76569 c -0.77046,-0.3161 -1.67133,-1.02017 -2.45125,-1.91576 l -0.63104,-0.72463 -0.93575,0.91714 c -1.47855,1.44911 -2.87173,2.04339 -4.02582,1.71728 -1.107209,-0.31289 -2.29198,-1.94332 -2.621075,-3.60701 -0.286476,-1.44823 0.30574,-3.24719 1.71162,-5.19944 0.90424,-1.2556 3.041505,-3.45852 4.544995,-4.68461 0.95228,-0.77659 1.13077,-0.87548 1.36713,-0.75741 0.49475,0.24713 2.32278,1.86991 3.56047,3.16067 3.45029,3.5983 4.55066,6.52456 3.37362,8.9716 -0.99261,2.06365 -2.29931,2.77596 -3.8929,2.12217 z M 79.275584,122.25658 c -1.754286,-0.33286 -3.520664,-1.10501 -4.761735,-2.0815 -1.971379,-1.55111 -4.381389,-4.71863 -5.702247,-7.49463 -1.481429,-3.1134 -2.106391,-5.98884 -2.097828,-9.65205 0.01,-4.268838 0.995118,-8.238295 3.119684,-12.57033 0.647195,-1.319648 0.845121,-1.6286 0.919954,-1.435941 0.05243,0.135027 0.299264,0.803108 0.548497,1.484651 2.701474,7.387162 6.71075,12.45955 15.02805,19.01309 2.537933,1.99971 6.565777,4.84478 9.215739,6.50947 0.985355,0.61903 1.772633,1.18507 1.749498,1.25793 -0.126015,0.39675 -4.746116,2.65804 -7.376092,3.61027 -3.834526,1.38827 -7.812449,1.89624 -10.64352,1.35904 z m 44.575126,0.0128 c -2.44879,-0.39241 -5.17694,-1.25044 -8.06537,-2.53667 -1.68901,-0.75209 -4.43898,-2.24585 -4.50245,-2.44566 -0.0232,-0.0729 0.76415,-0.6389 1.7495,-1.25793 2.64997,-1.66468 6.6778,-4.50975 9.21573,-6.50947 8.29818,-6.53845 12.10143,-11.319989 14.9156,-18.75221 0.39387,-1.040232 0.72834,-1.907277 0.74326,-1.926799 0.0149,-0.01974 0.39504,0.714717 0.8447,1.631557 2.1171,4.316852 3.10266,8.292469 3.11263,12.555982 0.006,2.31586 -0.13028,3.53134 -0.61156,5.47821 -0.70543,2.8536 -1.76424,5.13253 -3.55776,7.65751 -1.08461,1.527 -2.51193,3.12089 -3.49475,3.9027 -1.00703,0.80099 -2.75668,1.66705 -4.06548,2.01239 -1.3647,0.36002 -4.61141,0.45841 -6.28405,0.19039 z M 93.234118,107.96837 c -1.467245,-0.32309 -2.764616,-0.88415 -3.92001,-1.69515 -2.096968,-1.47193 -2.750066,-2.80568 -3.728635,-7.614521 -1.154967,-5.675746 -2.072076,-6.848344 -7.396127,-9.45639 -4.080327,-1.998828 -5.649412,-2.932377 -7.053611,-4.196662 -0.906506,-0.816223 -1.766777,-1.978323 -2.205317,-2.979114 -0.323749,-0.738822 -0.370852,-0.994631 -0.371899,-2.019875 -6.89e-4,-0.996749 0.04774,-1.282137 0.323184,-1.891255 0.442474,-0.978565 1.187712,-1.821309 2.30243,-2.603759 0.514855,-0.3614 0.985459,-0.657091 1.04577,-0.657091 0.06035,0 -0.06008,0.263943 -0.267538,0.586545 -0.207462,0.322653 -0.526236,0.953613 -0.708393,1.402175 -0.287662,0.708412 -0.331458,0.995571 -0.333222,2.185174 -0.0021,1.306684 0.01695,1.406311 0.412071,2.170678 0.799265,1.546318 3.117632,3.619683 5.390803,4.821065 0.466774,0.246691 1.61669,0.803946 2.555398,1.238314 3.554022,1.644622 4.953054,2.576096 5.954689,3.964569 1.032597,1.431407 1.47184,2.599074 2.39198,6.358519 0.60056,2.453748 1.056138,3.734398 1.806075,5.077078 1.330902,2.38275 3.642792,4.26829 6.385651,5.208 l 1.076717,0.3689 -1.242849,-0.005 c -0.74594,0 -1.712343,-0.10767 -2.417167,-0.2629 z m 19.709202,-0.0252 c 2.89076,-1.01755 5.14992,-2.85863 6.549,-5.33697 0.77955,-1.38088 1.14103,-2.48485 2.25345,-6.88221 0.6182,-2.443788 1.34519,-3.953232 2.48601,-5.161714 1.05576,-1.118421 1.98785,-1.711126 4.67321,-2.971767 4.27874,-2.008639 5.64617,-2.868779 7.29226,-4.586861 1.37118,-1.431161 1.82801,-2.40666 1.83099,-3.909944 0.002,-1.261531 -0.3381,-2.411201 -1.06312,-3.588484 l -0.49249,-0.799658 0.63787,0.368008 c 0.89247,0.514864 2.35721,1.977332 2.76181,2.757519 1.04549,2.015934 0.48913,4.421069 -1.51587,6.552949 -1.49965,1.594581 -2.79581,2.398534 -8.3651,5.188387 -2.25035,1.127292 -3.72033,2.110044 -4.40667,2.946035 -0.24006,0.292379 -0.68215,1.059899 -0.98243,1.705551 -0.53444,1.149179 -0.65238,1.580091 -1.7256,6.304779 -0.70255,3.09284 -1.5639,4.5592 -3.42491,5.83044 -1.72049,1.17526 -3.03687,1.74505 -5.34423,1.83526 l -1.55355,0.0608 z"
           style="fill:#000000;stroke-width:0.67114043"
           sodipodi:nodetypes="cccsscsccsccsccssscsscsscccccssccscccccscsccccccscccsccccsccccccccscccccsccsccccccsscssssccccccssccsccccsccscccccssccscscsssssscccccccccsccscccccccccsccccccccccccccsccsccsssccccscccsccccscccccscccccccssscccsccccccccccccccscsssscccsccssccccc" />
      </g>
      <g
         id="g5391"
         style="stroke-width:5.27121449">
        <g
           id="g4944"
           transform="matrix(0.69917127,0,0,0.69917127,384.58683,-32.89984)"
           style="stroke-width:5.27121449">
          <path
             sodipodi:nodetypes="cccccc"
             style="fill:#930000;stroke-width:1.39467525"
             d="m -475.82634,294.81478 -24.92003,-50.83391 107.50338,29.39783 -0.0133,41.23594 -107.47027,28.3623 z"
             id="path4917"
             inkscape:connector-curvature="0" />
          <path
             inkscape:connector-curvature="0"
             id="path4940"
             d="m -310.68624,294.81478 24.92003,-50.83391 -107.50338,29.39783 0.0133,41.23594 107.47027,28.3623 z"
             style="fill:#ff0000;stroke-width:1.39467525"
             sodipodi:nodetypes="cccccc" />
        </g>
        <path
           inkscape:connector-curvature="0"
           id="path4913"
           d="m 40.774334,201.00189 c 0.05474,-0.14574 3.657628,-6.3994 8.006412,-13.897 4.348792,-7.49761 7.941508,-13.76726 7.983818,-13.93258 0.04229,-0.1653 -3.556009,-6.91024 -7.996272,-14.98873 -4.440262,-8.07849 -7.993637,-14.71526 -7.896384,-14.74838 0.09725,-0.0331 15.558156,3.78314 34.357583,8.48059 18.79942,4.69744 34.343709,8.53928 34.542869,8.53741 0.19915,-0.002 15.71589,-3.84075 34.48164,-8.53083 18.76575,-4.69009 34.17913,-8.50521 34.25196,-8.47804 0.0728,0.0271 -3.52425,6.70134 -7.99349,14.8315 -6.11431,11.12276 -8.0852,14.85501 -7.96151,15.0766 0.0904,0.16199 3.74481,6.45465 8.12089,13.9837 4.37608,7.52906 7.89627,13.71241 7.82265,13.74079 -0.0736,0.0284 -15.57223,-3.68598 -34.44134,-8.25412 l -34.30748,-8.3057 -33.119634,8.01576 c -18.215801,4.40867 -33.756746,8.17737 -34.535432,8.37489 -1.163237,0.29507 -1.398047,0.31186 -1.31628,0.0941 z"
           style="fill:#000000;stroke-width:0.96469134" />
      </g>
      <g
         transform="matrix(0.45726325,0,0,0.45726325,64.175403,-71.28372)"
         id="g5381"
         style="stroke-width:5.27121449">
        <rect
           style="fill:#000000;fill-opacity:1;stroke:none;stroke-width:4.03200674;stroke-miterlimit:4;stroke-dasharray:none;stroke-opacity:1"
           id="rect5370"
           width="216.34647"
           height="77.080536"
           x="-6.5052609"
           y="494.14172" />
        <g
           id="g5368"
           transform="translate(-531.36357,327.80982)"
           style="stroke-width:5.27121449">
          <g
             id="g5193"
             transform="translate(277.85473,-10.615507)"
             style="fill:#bababa;fill-opacity:1;stroke-width:5.27121449">
            <g
               aria-label="FURY"
               transform="matrix(0.38366476,0,0,0.38366476,4710.6745,2442.2595)"
               style="font-style:normal;font-variant:normal;font-weight:normal;font-stretch:normal;font-size:40px;line-height:1.25;font-family:Bebas;-inkscape-font-specification:Bebas;letter-spacing:0px;word-spacing:0px;fill:#bababa;fill-opacity:1;stroke:none;stroke-width:5.27121449"
               id="g5191">
              <path
                 d="m -11579.555,-5775.3879 44.521,0.3448 v -35.4754 l -44.521,-0.3448 v -35.6428 l 70.515,2.9546 -0.345,-38.5972 -124.905,-22.2542 v 200.8298 l 54.735,-11.4063 z"
                 style="font-style:normal;font-variant:normal;font-weight:normal;font-stretch:normal;font-size:266.66665649px;font-family:Kroftsmann;-inkscape-font-specification:Kroftsmann;fill:#bababa;fill-opacity:1;stroke-width:5.87586689"
                 id="path5183"
                 inkscape:connector-curvature="0"
                 sodipodi:nodetypes="ccccccccccc" />
              <path
                 d="m -11491.937,-5736.7781 11.374,11.0938 109.109,-5.071 7.924,-13.0935 0.111,-132.2923 c -15.871,0 -31.738,0 -47.61,-0.01 v 114.3895 c -11.344,5e-4 -22.69,0 -34.035,0 v -114.391 l -47.118,-5.9961 z"
                 style="font-style:normal;font-variant:normal;font-weight:normal;font-stretch:normal;font-size:266.66665649px;font-family:Kroftsmann;-inkscape-font-specification:Kroftsmann;fill:#bababa;fill-opacity:1;stroke-width:5.09118986"
                 id="path5185"
                 inkscape:connector-curvature="0"
                 sodipodi:nodetypes="ccccccccccc" />
              <path
                 d="m -11338.47,-5876.1425 v 145.3888 h 47.547 v -46.4355 c 2.94,5e-4 5.878,0 8.818,0 l 28.983,51.2612 54.016,6.0827 -35.035,-66.6514 26.436,-18.3385 -0.2,-77.3135 -130.555,6.0082 z m 78.074,65.196 c -10.184,-5e-4 -20.37,0 -30.557,0 v -34.1906 c 10.183,0 20.366,-0.01 30.55,-0.01 v 34.2003 z"
                 style="font-style:normal;font-variant:normal;font-weight:normal;font-stretch:normal;font-size:266.66665649px;font-family:Kroftsmann;-inkscape-font-specification:Kroftsmann;fill:#bababa;fill-opacity:1;stroke-width:5.12087917"
                 id="path5187"
                 inkscape:connector-curvature="0"
                 sodipodi:nodetypes="cccccccccccccccccc" />
              <path
                 d="m -11107.579,-5707.8615 -50.438,-4.1377 v -79.7097 l -42.562,-90.4398 50.791,-9.159 17.096,46.1183 14.9,-51.0456 47.697,-8.1679 -37.484,112.694 z"
                 style="font-style:normal;font-variant:normal;font-weight:normal;font-stretch:normal;font-size:266.66665649px;font-family:Kroftsmann;-inkscape-font-specification:Kroftsmann;fill:#bababa;fill-opacity:1;stroke-width:5.64499331"
                 id="path5189"
                 inkscape:connector-curvature="0"
                 sodipodi:nodetypes="cccccccccc" />
            </g>
          </g>
          <rect
             transform="translate(-239.07139,-90.53667)"
             clip-path="url(#clipPath5195)"
             y="179.04553"
             x="720.50159"
             height="120.43832"
             width="302.84979"
             id="rect5020"
             style="fill:#ffffff;fill-opacity:1;stroke:none;stroke-width:3.71913433;stroke-miterlimit:4;stroke-dasharray:none;stroke-opacity:1" />
        </g>
      </g>
    </g>
  </g>
</svg>
